<?xml version="1.0" standalone="no"?>
<svg xmlns="http://www.w3.org/2000/svg" viewBox="0 0 136.512 29" width="136.512" height="29"><g fill="#ff5576" color="#ff5576" transform="translate(0, 0) scale(1.8125)"><svg width="16.0" height="16.0" x="0.0" y="0.0" viewBox="0 0 16 16"><path d="M7.969 0l-1.969 11.844-.031.156h2.063l1.969-11.844.031-.156h-2.063zm-2.969 1.813l-.531.344-4 2.5-.469.281v2.126l.469.281 4 2.5.531.344v-2.375l-2.906-1.813 2.906-1.813v-2.375zm6 0v2.375l2.906 1.813-2.906 1.813v2.375l.531-.344 4-2.5.469-.281v-2.126l-.469-.281-4-2.5-.531-.344z" transform="translate(0 2)"></path></svg></g><line x1="41" y1="1" x2="41" y2="28" stroke="#0b0cac" stroke-linecap="round"></line><path fill="#0b0cac" fill-rule="nonzero" d="M4.61 19.34Q3.24 19.34 2.20 18.61Q1.15 17.88 0.58 16.52Q0 15.17 0 13.39L0 13.39Q0 10.39 1.52 7.25Q3.05 4.10 5.38 2.05Q7.70 0 9.94 0L9.94 0Q10.85 0 11.38 0.29L11.38 0.29L11.11 0.29Q9.12 0.29 7.01 2.41Q4.90 4.54 3.50 7.70Q2.11 10.87 2.11 13.73L2.11 13.73Q2.11 15.82 2.92 17.17Q3.72 18.53 5.33 18.53L5.33 18.53Q7.46 18.53 9.23 16.43Q10.99 14.33 12.01 11.18Q13.03 8.04 13.03 5.14L13.03 5.14Q13.03 3.91 12.77 2.87Q12.50 1.82 11.95 1.82L11.95 1.82Q11.40 1.82 10.72 2.70Q10.03 3.58 9.47 4.80Q8.90 6.02 8.71 6.96L8.71 6.96Q8.14 6.82 7.85 6.50Q7.56 6.19 7.56 5.78L7.56 5.78Q7.56 4.97 8.32 3.86Q9.07 2.76 10.10 1.97Q11.14 1.18 11.90 1.18L11.90 1.18Q13.01 1.18 13.48 2.59Q13.94 4.01 13.94 5.81L13.94 5.81Q13.94 9.91 12.48 13.00Q11.02 16.08 8.83 17.71Q6.65 19.34 4.61 19.34L4.61 19.34ZM16.10 17.98Q15.31 17.98 14.81 17.27Q14.30 16.56 14.30 15.55L14.30 15.55Q14.30 14.66 14.68 13.36Q15.05 12.05 15.56 11.08Q16.08 10.10 16.42 10.10L16.42 10.10Q16.56 10.10 16.84 10.25Q17.11 10.39 17.30 10.58L17.30 10.58Q16.80 11.38 16.25 12.85Q15.70 14.33 15.70 15.41L15.70 15.41Q15.70 15.96 15.88 16.49Q16.06 17.02 16.56 17.02L16.56 17.02Q17.40 17.02 18.40 15.47Q19.39 13.92 20.54 11.54L20.54 11.54L20.93 10.75Q22.08 10.97 22.08 11.38L22.08 11.38Q22.08 11.42 21.97 11.70Q21.86 11.98 21.77 12.19L21.77 12.19Q21.22 13.42 20.84 14.48Q20.47 15.55 20.47 16.30L20.47 16.30Q20.47 17.26 21.26 17.26L21.26 17.26Q21.79 17.26 22.51 16.79Q23.23 16.32 23.98 15.43Q24.72 14.54 25.27 13.37L25.27 13.37L25.58 13.58Q25.08 14.86 24.28 15.85Q23.47 16.85 22.54 17.41Q21.60 17.98 20.76 17.98L20.76 17.98Q19.08 17.98 19.08 16.20L19.08 16.20Q19.08 15.72 19.25 15L19.25 15Q18.48 16.37 17.71 17.17Q16.94 17.98 16.10 17.98L16.10 17.98ZM25.97 18.38Q25.18 18.38 24.68 17.87Q24.19 17.35 24.19 16.39L24.19 16.39Q24.19 14.98 25.21 13.22Q26.23 11.47 27.79 10.25Q29.35 9.02 30.84 9.02L30.84 9.02Q31.78 9.02 32.40 9.53Q33.02 10.03 33.02 10.82L33.02 10.82Q33.02 11.38 32.71 11.62Q32.40 11.86 31.85 11.86L31.85 11.86Q31.97 11.42 31.97 11.02L31.97 11.02Q31.97 10.42 31.68 10.04Q31.39 9.67 30.79 9.67L30.79 9.67Q29.74 9.67 28.57 10.85Q27.41 12.02 26.63 13.66Q25.85 15.29 25.85 16.46L25.85 16.46Q25.85 17.40 26.50 17.40L26.50 17.40Q27.46 17.40 28.75 15.88Q30.05 14.35 31.54 12.17L31.54 12.17Q31.85 12.22 32.17 12.37Q32.50 12.53 32.50 12.77L32.50 12.77Q32.50 12.96 32.27 13.38Q32.04 13.80 31.99 13.87L31.99 13.87Q31.58 14.57 31.34 15.11Q31.10 15.65 31.10 16.10L31.10 16.10Q31.10 16.51 31.31 16.84Q31.51 17.16 31.92 17.16L31.92 17.16Q32.62 17.16 33.67 16.16Q34.73 15.17 35.76 13.37L35.76 13.37L36 13.61Q35.50 14.88 34.70 15.88Q33.91 16.87 33 17.42Q32.09 17.98 31.25 17.98L31.25 17.98Q30.41 17.98 29.96 17.48Q29.52 16.99 29.52 16.30L29.52 16.30Q29.52 15.98 29.59 15.60L29.59 15.60Q28.51 17.04 27.66 17.71Q26.81 18.38 25.97 18.38L25.97 18.38ZM39.43 17.88Q38.62 17.88 38.15 17.45Q37.68 17.02 37.68 16.32L37.68 16.32Q37.68 15.50 38.38 13.97L38.38 13.97Q38.69 13.18 38.84 12.71Q39 12.24 39 11.83L39 11.83Q39 11.23 38.72 10.88Q38.45 10.54 38.11 10.31Q37.78 10.08 37.66 10.01L37.66 10.01Q37.13 11.35 36.53 12.64Q35.93 13.92 35.52 14.62L35.52 14.62L35.30 14.21Q36.46 11.98 37.25 9.65L37.25 9.65Q37.01 9.41 37.01 9.07L37.01 9.07Q37.01 8.64 37.19 8.26Q37.37 7.87 37.62 7.66Q37.87 7.44 38.02 7.44L38.02 7.44Q38.35 7.44 38.35 8.02L38.35 8.02Q38.35 8.11 38.23 8.45Q38.11 8.78 38.09 8.90L38.09 8.90Q38.09 9.14 38.29 9.35Q38.50 9.55 38.95 9.86L38.95 9.86Q39.70 10.39 40.12 10.91Q40.54 11.42 40.54 12.24L40.54 12.24Q40.54 12.77 40.37 13.28Q40.20 13.80 39.86 14.64L39.86 14.64Q39.34 15.79 39.34 16.30L39.34 16.30Q39.34 17.02 40.06 17.02L40.06 17.02Q40.78 17.02 41.60 16.44Q42.43 15.86 43.13 15.01Q43.82 14.16 44.14 13.44L44.14 13.44L44.45 13.68Q43.70 15.34 42.29 16.61Q40.87 17.88 39.43 17.88L39.43 17.88ZM48.24 6.89Q47.81 6.89 47.53 6.68Q47.26 6.48 47.26 6.10L47.26 6.10Q47.26 5.62 47.83 5.23Q48.41 4.85 49.01 4.85L49.01 4.85Q49.80 4.85 49.80 5.59L49.80 5.59Q49.80 6.05 49.31 6.47Q48.82 6.89 48.24 6.89L48.24 6.89ZM45.36 17.88Q44.47 17.88 43.99 17.32Q43.51 16.75 43.51 15.86L43.51 15.86Q43.51 14.93 44.05 13.27Q44.59 11.62 45.40 10.37Q46.20 9.12 46.97 9.12L46.97 9.12Q47.18 9.12 47.34 9.26Q47.50 9.41 47.50 9.65L47.50 9.65Q47.50 9.98 46.73 11.26L46.73 11.26Q45.94 12.58 45.47 13.62Q45.00 14.66 45.00 15.60L45.00 15.60Q45.00 16.44 45.28 16.74Q45.55 17.04 46.18 17.04L46.18 17.04Q48.05 17.04 49.87 13.37L49.87 13.37L50.09 13.61Q49.42 15.62 48.11 16.75Q46.80 17.88 45.36 17.88L45.36 17.88ZM50.57 18.38Q49.78 18.38 49.28 17.87Q48.79 17.35 48.79 16.39L48.79 16.39Q48.79 14.98 49.81 13.22Q50.83 11.47 52.39 10.25Q53.95 9.02 55.44 9.02L55.44 9.02Q56.38 9.02 57.00 9.53Q57.62 10.03 57.62 10.82L57.62 10.82Q57.62 11.38 57.31 11.62Q57.00 11.86 56.45 11.86L56.45 11.86Q56.57 11.42 56.57 11.02L56.57 11.02Q56.57 10.42 56.28 10.04Q55.99 9.67 55.39 9.67L55.39 9.67Q54.34 9.67 53.17 10.85Q52.01 12.02 51.23 13.66Q50.45 15.29 50.45 16.46L50.45 16.46Q50.45 17.40 51.10 17.40L51.10 17.40Q52.06 17.40 53.35 15.88Q54.65 14.35 56.14 12.17L56.14 12.17Q56.45 12.22 56.77 12.37Q57.10 12.53 57.10 12.77L57.10 12.77Q57.10 12.96 56.87 13.38Q56.64 13.80 56.59 13.87L56.59 13.87Q56.18 14.57 55.94 15.11Q55.70 15.65 55.70 16.10L55.70 16.10Q55.70 16.51 55.91 16.84Q56.11 17.16 56.52 17.16L56.52 17.16Q57.22 17.16 58.27 16.16Q59.33 15.17 60.36 13.37L60.36 13.37L60.60 13.61Q60.10 14.88 59.30 15.88Q58.51 16.87 57.60 17.42Q56.69 17.98 55.85 17.98L55.85 17.98Q55.01 17.98 54.56 17.48Q54.12 16.99 54.12 16.30L54.12 16.30Q54.12 15.98 54.19 15.60L54.19 15.60Q53.11 17.04 52.26 17.71Q51.41 18.38 50.57 18.38L50.57 18.38ZM62.45 18.60Q61.25 18.60 60.50 17.81Q59.76 17.02 59.76 15.53L59.76 15.53Q59.76 13.97 60.55 12.48Q61.34 10.99 62.58 10.07Q63.82 9.14 65.02 9.14L65.02 9.14Q65.93 9.14 66.32 9.66Q66.72 10.18 66.72 10.92L66.72 10.92Q66.72 11.64 66.40 12.16Q66.07 12.67 65.52 12.67L65.52 12.67Q65.11 12.67 64.82 12.31L64.82 12.31Q65.18 12.14 65.45 11.56Q65.71 10.97 65.71 10.42L65.71 10.42Q65.71 10.10 65.59 9.96Q65.47 9.82 65.18 9.82L65.18 9.82Q64.37 9.82 63.44 10.79Q62.52 11.76 61.88 13.15Q61.25 14.54 61.25 15.70L61.25 15.70Q61.25 16.56 61.66 17.12Q62.06 17.69 63 17.69L63 17.69Q64.46 17.69 65.89 16.49Q67.32 15.29 68.09 13.34L68.09 13.34L68.40 13.58Q67.85 15.02 66.89 16.16Q65.93 17.30 64.76 17.95Q63.60 18.60 62.45 18.60L62.45 18.60ZM68.76 18.17Q68.33 18.17 68.05 17.42Q67.78 16.68 67.78 15.67L67.78 15.67Q67.78 13.46 69.13 9.72Q70.49 5.98 72.22 3.05Q73.94 0.12 74.95 0.12L74.95 0.12Q75.34 0.12 75.54 0.59Q75.74 1.06 75.74 1.63L75.74 1.63Q75.74 2.76 74.94 4.63Q74.14 6.50 72.85 8.23Q71.57 9.96 70.22 10.78L70.22 10.78Q69.79 11.78 69.56 13.12Q69.34 14.45 69.34 15.50L69.34 15.50Q69.34 15.89 69.38 16.32L69.38 16.32Q70.34 13.54 71.56 11.82Q72.77 10.10 74.26 10.10L74.26 10.10Q75.17 10.10 75.62 10.74Q76.08 11.38 76.08 12.26L76.08 12.26Q76.08 12.79 75.95 13.27Q75.82 13.75 75.53 14.52L75.53 14.52Q75.29 15.17 75.17 15.55Q75.05 15.94 75.05 16.30L75.05 16.30Q75.05 16.75 75.24 16.98Q75.43 17.21 75.77 17.21L75.77 17.21Q76.58 17.21 77.69 16.07Q78.79 14.93 79.51 13.37L79.51 13.37L79.82 13.66Q79.03 15.48 77.80 16.66Q76.56 17.83 75.22 17.83L75.22 17.83Q74.42 17.83 73.99 17.41Q73.56 16.99 73.56 16.32L73.56 16.32Q73.56 15.79 73.92 14.62L73.92 14.62Q74.30 13.32 74.30 12.70L74.30 12.70Q74.30 12.10 74.05 11.82Q73.80 11.54 73.39 11.54L73.39 11.54Q72.50 11.54 71.84 12.59Q71.18 13.63 70.42 15.53L70.42 15.53Q69.84 16.92 69.50 17.54Q69.17 18.17 68.76 18.17L68.76 18.17ZM70.54 9.84Q71.57 9.02 72.59 7.48Q73.61 5.93 74.27 4.40Q74.93 2.88 74.93 2.26L74.93 2.26Q74.93 2.06 74.83 2.06L74.83 2.06Q74.57 2.06 73.74 3.25Q72.91 4.44 72 6.24Q71.09 8.04 70.54 9.84L70.54 9.84ZM83.66 6.89Q83.23 6.89 82.96 6.68Q82.68 6.48 82.68 6.10L82.68 6.10Q82.68 5.62 83.26 5.23Q83.83 4.85 84.43 4.85L84.43 4.85Q85.22 4.85 85.22 5.59L85.22 5.59Q85.22 6.05 84.73 6.47Q84.24 6.89 83.66 6.89L83.66 6.89ZM80.78 17.88Q79.90 17.88 79.42 17.32Q78.94 16.75 78.94 15.86L78.94 15.86Q78.94 14.93 79.48 13.27Q80.02 11.62 80.82 10.37Q81.62 9.12 82.39 9.12L82.39 9.12Q82.61 9.12 82.76 9.26Q82.92 9.41 82.92 9.65L82.92 9.65Q82.92 9.98 82.15 11.26L82.15 11.26Q81.36 12.58 80.89 13.62Q80.42 14.66 80.42 15.60L80.42 15.60Q80.42 16.44 80.70 16.74Q80.98 17.04 81.60 17.04L81.60 17.04Q83.47 17.04 85.30 13.37L85.30 13.37L85.51 13.61Q84.84 15.62 83.53 16.75Q82.22 17.88 80.78 17.88L80.78 17.88Z" transform="translate(51, 4.828)"></path></svg>